HIERARCHY
ROOT Hips
{
  OFFSET 64.0973 96.6674 -13.0359
  CHANNELS 6 Xposition Yposition Zposition Zrotation Xrotation Yrotation
  JOINT spine
  {
    OFFSET 0 7.96568 0.458067
    CHANNELS 3 Zrotation Xrotation Yrotation
    JOINT spine1
    {
      OFFSET 0 10.2431 0
      CHANNELS 3 Zrotation Xrotation Yrotation
      JOINT spine2
      {
        OFFSET 0 9.81475 0
        CHANNELS 3 Zrotation Xrotation Yrotation
        JOINT Neck
        {
          OFFSET 0 25.1986 1.20138
          CHANNELS 3 Zrotation Xrotation Yrotation
          JOINT Head
          {
            OFFSET 0 7.61315 0
            CHANNELS 3 Zrotation Xrotation Yrotation
            End Site
            {
              OFFSET 0 18.4281 -6.07733
            }
          }
        }
        JOINT RightShoulder
        {
          OFFSET -4.1327 10.5992 -0.575451
          CHANNELS 3 Zrotation Xrotation Yrotation
          JOINT RightArm
          {
            OFFSET 0 13.9018 0
            CHANNELS 3 Zrotation Xrotation Yrotation
            JOINT RightArmRoll
            {
              OFFSET 0 7.01789 0
              CHANNELS 3 Zrotation Xrotation Yrotation
              JOINT RightForeArm
              {
                OFFSET 0 20.4406 0
                CHANNELS 3 Zrotation Xrotation Yrotation
                JOINT RightForeArmRoll
                {
                  OFFSET 0 7.87516 0
                  CHANNELS 3 Zrotation Xrotation Yrotation
                  JOINT RightHand
                  {
                    OFFSET 0 15.8037 0
                    CHANNELS 3 Zrotation Xrotation Yrotation
                    End Site
                    {
                      OFFSET 0 0 0
                    }
                  }
                }
              }
            }
          }
        }
        JOINT LeftShoulder
        {
          OFFSET 4.1327 10.5992 -0.575451
          CHANNELS 3 Zrotation Xrotation Yrotation
          JOINT LeftArm
          {
            OFFSET 0 13.9018 0
            CHANNELS 3 Zrotation Xrotation Yrotation
            JOINT LeftArmRoll
            {
              OFFSET 0 7.01788 0
              CHANNELS 3 Zrotation Xrotation Yrotation
              JOINT LeftForeArm
              {
                OFFSET 0 20.4406 0
                CHANNELS 3 Zrotation Xrotation Yrotation
                JOINT LeftForeArmRoll
                {
                  OFFSET 0 7.87515 0
                  CHANNELS 3 Zrotation Xrotation Yrotation
                  JOINT LeftHand
                  {
                    OFFSET 0 15.8037 0
                    CHANNELS 3 Zrotation Xrotation Yrotation
                    End Site
                    {
                      OFFSET 0 0 0
                    }
                  }
                }
              }
            }
          }
        }
      }
    }
  }
  JOINT RightUpLeg
  {
    OFFSET -7.06048 -1.2947 -1.0861
    CHANNELS 3 Zrotation Xrotation Yrotation
    JOINT RightUpLegRoll
    {
      OFFSET 0 18.5308 0
      CHANNELS 3 Zrotation Xrotation Yrotation
      JOINT RightLeg
      {
        OFFSET 0 -22.9476 0
        CHANNELS 3 Zrotation Xrotation Yrotation
        JOINT RightLegRoll
        {
          OFFSET 0 23.0226 0
          CHANNELS 3 Zrotation Xrotation Yrotation
          JOINT RightFoot
          {
            OFFSET 0 19.1625 0
            CHANNELS 3 Zrotation Xrotation Yrotation
            JOINT RightToeBase
            {
              OFFSET 0 16.0188 0
              CHANNELS 3 Zrotation Xrotation Yrotation
              End Site
              {
                OFFSET 0.00678979 7.75782 -0.894207
              }
            }
          }
        }
      }
    }
  }
  JOINT LeftUpLeg
  {
    OFFSET 7.06048 -1.2947 -1.0861
    CHANNELS 3 Zrotation Xrotation Yrotation
    JOINT LeftUpLegRoll
    {
      OFFSET 0 18.5309 0
      CHANNELS 3 Zrotation Xrotation Yrotation
      JOINT LeftLeg
      {
        OFFSET 0 22.9475 0
        CHANNELS 3 Zrotation Xrotation Yrotation
        JOINT LeftLegRoll
        {
          OFFSET 0 23.2355 0
          CHANNELS 3 Zrotation Xrotation Yrotation
          JOINT LeftFoot
          {
            OFFSET 0 18.9496 0
            CHANNELS 3 Zrotation Xrotation Yrotation
            JOINT LeftToeBase
            {
              OFFSET 0 16.0188 0
              CHANNELS 3 Zrotation Xrotation Yrotation
              End Site
              {
                OFFSET -0.0304289 7.75781 -0.894207
              }
            }
          }
        }
      }
    }
  }
}
MOTION
Frames: 9
Frame Time: 0.00208333
55.722 115.596 3.45063 -1.612 2.25957 -1.45091 0.326031 -0.435311 -0.335126 0.653655 3.13012 -0.711656 0.663031 4.77507 -0.72329 -13.447 -12.735 -7.12403 15.8092 28.2799 -10.5705 63.3918 -7.6024 -4.86563 105.716 2.01974 -13.3541 -8.2689e-006 -1.5486e-006 -1.58051e-006 16.3418 63.7918 -13.5118 -5.06092e-006 -5.55048e-006 -3 8.02892 -4.95144 0.697687 -52.3989 -0.601588 -0.397939 -111.434 4.04223 23.1642 -5.86734e-006 2.28356e-007 1.082e-006 -22.3581 56.7349 15.4009 6.56873e-006 -5.26351e-007 2.99999 -8.02895 -4.95142 -0.697659 176.054 7.67821 1.67365 180 7.01538e-015 178.883 -179.889 11.6106 179.301 1.84783e-006 -3.52178e-006 0.025175 -17.3974 66.0985 18.0862 8.13649 25.2327 -3.48774 -171.274 11.684 -4.48194 4.5067e-006 -1.99009e-005 -1.0422 -2.95737 -17.4533 0.00932542 -3.51277e-006 -2.08759e-006 -0.261963 18.8091 68.1306 -19.6397 -8.13649 25.2326 3.48773 
55.7177 115.307 3.45819 -1.61476 2.24688 -1.48701 0.324479 -0.429303 -0.337021 0.650589 3.14214 -0.714548 0.659999 4.78709 -0.726136 -13.5101 -12.8046 -7.12674 15.9034 28.3069 -10.5849 63.3532 -7.58412 -4.85388 105.735 1.99086 -13.3346 -8.2689e-006 -1.5486e-006 -1.58051e-006 16.3201 63.8522 -13.5145 -5.06092e-006 -5.55048e-006 -3 8.02892 -4.95144 0.697687 -52.4635 -0.642011 -0.362401 -111.323 4.06506 23.113 -5.86734e-006 2.28356e-007 1.082e-006 -22.3457 56.7836 15.4123 6.56873e-006 -5.26351e-007 2.99999 -8.02895 -4.95142 -0.697659 176.067 7.7296 1.68181 180 7.01538e-015 178.883 -179.907 11.7383 179.299 1.84783e-006 -3.52178e-006 0.029595 -17.4151 66.124 18.1047 8.13649 25.2327 -3.48774 -171.23 11.685 -4.52135 4.5067e-006 -1.99009e-005 -1.04384 -2.96203 -17.5007 0.0085165 -3.51277e-006 -2.08759e-006 -0.262231 18.7971 68.1142 -19.6264 -8.13649 25.2326 3.48773 
55.7533 115.033 3.4665 -1.61755 2.23403 -1.52434 0.322989 -0.423126 -0.339229 0.647653 3.1545 -0.718089 0.657104 4.79945 -0.729633 -13.5831 -12.8777 -7.12916 16.0065 28.3378 -10.6009 63.3078 -7.56499 -4.84145 105.762 1.96392 -13.3169 -8.2689e-006 -1.5486e-006 -1.58051e-006 16.2983 63.9096 -13.5162 -5.06092e-006 -5.55048e-006 -3 8.02892 -4.95144 0.697687 -52.5335 -0.68542 -0.324166 -111.207 4.08894 23.0629 -5.86734e-006 2.28356e-007 1.082e-006 -22.3355 56.8327 15.425 6.56873e-006 -5.26351e-007 2.99999 -8.02895 -4.95142 -0.697659 176.08 7.78419 1.69044 180 7.01538e-015 178.884 -179.926 11.8722 179.296 1.84783e-006 -3.52178e-006 0.0341703 -17.4333 66.15 18.1236 8.13649 25.2327 -3.48774 -171.184 11.6863 -4.56202 4.5067e-006 -1.99009e-005 -1.04553 -2.96706 -17.5502 0.00761169 -3.51277e-006 -2.08759e-006 -0.262484 18.785 68.0977 -19.6132 -8.13649 25.2326 3.48773 
55.7539 114.729 3.45508 -1.62094 2.22094 -1.5626 0.321486 -0.416708 -0.341672 0.644692 3.16733 -0.722116 0.654191 4.81229 -0.733617 -13.6606 -12.9545 -7.13134 16.1138 28.3718 -10.6176 63.2591 -7.54531 -4.8286 105.793 1.93918 -13.3013 -8.2689e-006 -1.5486e-006 -1.58051e-006 16.2767 63.9649 -13.5173 -5.06092e-006 -5.55048e-006 -3 8.02892 -4.95144 0.697687 -52.6052 -0.731303 -0.284014 -111.087 4.11361 23.0135 -5.86734e-006 2.28356e-007 1.082e-006 -22.326 56.882 15.4383 6.56873e-006 -5.26351e-007 2.99999 -8.02895 -4.95142 -0.697659 176.095 7.8418 1.69913 180 7.01538e-015 178.884 -179.946 12.0124 179.294 1.84783e-006 -3.52178e-006 0.038888 -17.4517 66.1764 18.1428 8.13649 25.2327 -3.48774 -171.136 11.6889 -4.60414 4.5067e-006 -1.99009e-005 -1.04727 -2.97203 -17.6033 0.00672057 -3.51277e-006 -2.08759e-006 -0.262761 18.7731 68.0813 -19.6 -8.13649 25.2326 3.48773 
55.7714 114.444 3.43455 -1.62553 2.20757 -1.60151 0.319893 -0.409972 -0.344269 0.641554 3.18081 -0.726468 0.651104 4.82576 -0.737923 -13.7371 -13.0352 -7.13334 16.2205 28.4084 -10.634 63.2108 -7.52534 -4.8156 105.824 1.91693 -13.2881 -8.2689e-006 -1.5486e-006 -1.58051e-006 16.2559 64.0185 -13.5184 -5.06092e-006 -5.55048e-006 -3 8.02892 -4.95144 0.697687 -52.675 -0.779146 -0.242724 -110.97 4.13877 22.9642 -5.86734e-006 2.28356e-007 1.082e-006 -22.3162 56.9316 15.4514 6.56873e-006 -5.26351e-007 2.99999 -8.02895 -4.95142 -0.697659 176.111 7.90223 1.70748 180 7.01538e-015 178.884 -179.966 12.1591 179.291 1.84783e-006 -3.52178e-006 0.0437357 -17.4703 66.2028 18.1621 8.13649 25.2327 -3.48774 -171.086 11.6935 -4.64791 4.5067e-006 -1.99009e-005 -1.04906 -2.97653 -17.6615 0.00595279 -3.51277e-006 -2.08759e-006 -0.2631 18.7613 68.0649 -19.587 -8.13649 25.2326 3.48773 
55.7778 114.132 3.43212 -1.6319 2.19384 -1.64077 0.318133 -0.402846 -0.346942 0.638087 3.19506 -0.730984 0.64769 4.84002 -0.742387 -13.8073 -13.1199 -7.1352 16.3217 28.4469 -10.6491 63.1666 -7.50537 -4.80275 105.851 1.89746 -13.2778 -8.2689e-006 -1.5486e-006 -1.58051e-006 16.2364 64.0713 -13.5202 -5.06092e-006 -5.55048e-006 -3 8.02892 -4.95144 0.697687 -52.739 -0.828436 -0.201075 -110.857 4.16416 22.9145 -5.86734e-006 2.28356e-007 1.082e-006 -22.3048 56.9814 15.4635 6.56873e-006 -5.26351e-007 2.99999 -8.02895 -4.95142 -0.697659 176.13 7.9653 1.71511 180 7.01538e-015 178.884 -179.987 12.3124 179.288 1.84783e-006 -3.52178e-006 0.0487005 -17.4888 66.2291 18.1813 8.13649 25.2327 -3.48774 -171.034 11.7009 -4.69353 4.5067e-006 -1.99009e-005 -1.0509 -2.98012 -17.7262 0.00541818 -3.51277e-006 -2.08759e-006 -0.263538 18.7498 68.0488 -19.5743 -8.13649 25.2326 3.48773 
55.7962 113.837 3.41279 -1.64065 2.17971 -1.68008 0.31613 -0.395253 -0.349611 0.634138 3.21025 -0.7355 0.643793 4.85521 -0.746845 -13.8656 -13.2087 -7.137 16.4129 28.4868 -10.6622 63.13 -7.48567 -4.79033 105.871 1.88104 -13.2708 -8.2689e-006 -1.5486e-006 -1.58051e-006 16.2187 64.1239 -13.523 -5.06092e-006 -5.55048e-006 -3 8.02892 -4.95144 0.697687 -52.7937 -0.878661 -0.159847 -110.752 4.1895 22.8638 -5.86734e-006 2.28356e-007 1.082e-006 -22.2905 57.0313 15.474 6.56873e-006 -5.26351e-007 2.99999 -8.02895 -4.95142 -0.697659 176.152 8.03082 1.7216 180 7.01538e-015 178.884 179.991 12.4723 179.285 1.84783e-006 -3.52178e-006 0.05377 -17.507 66.2551 18.2003 8.13649 25.2327 -3.48774 -170.977 11.7117 -4.7412 4.5067e-006 -1.99009e-005 -1.0528 -2.98239 -17.7988 0.00522672 -3.51277e-006 -2.08759e-006 -0.264113 18.7386 68.0332 -19.562 -8.13649 25.2326 3.48773 
55.797 113.521 3.40817 -1.65235 2.16511 -1.71916 0.313807 -0.38712 -0.352197 0.629552 3.22652 -0.739857 0.639258 4.87148 -0.751132 -13.9067 -13.3019 -7.13877 16.489 28.5273 -10.6721 63.1047 -7.46653 -4.7786 105.88 1.86797 -13.2674 -8.2689e-006 -1.5486e-006 -1.58051e-006 16.2032 64.1769 -13.5275 -5.06092e-006 -5.55048e-006 -3 8.02892 -4.95144 0.697687 -52.8352 -0.929305 -0.119819 -110.66 4.21452 22.8117 -5.86734e-006 2.28356e-007 1.082e-006 -22.2721 57.0813 15.4819 6.56873e-006 -5.26351e-007 2.99999 -8.02895 -4.95142 -0.697659 176.178 8.09861 1.72656 180 7.01538e-015 178.884 179.969 12.6389 179.282 1.84783e-006 -3.52178e-006 0.0589313 -17.5249 66.2804 18.2188 8.13649 25.2327 -3.48774 -170.917 11.7269 -4.79112 4.5067e-006 -1.99009e-005 -1.05476 -2.98291 -17.8807 0.00548864 -3.51277e-006 -2.08759e-006 -0.264863 18.728 68.0181 -19.5501 -8.13649 25.2326 3.48773 
55.8208 113.219 3.40448 -1.66761 2.14998 -1.7577 0.311087 -0.378371 -0.35462 0.624178 3.24402 -0.743892 0.633929 4.88899 -0.755084 -13.9251 -13.3994 -7.14059 16.5455 28.5679 -10.678 63.0944 -7.44821 -4.76784 105.873 1.85851 -13.2681 -8.2689e-006 -1.5486e-006 -1.58051e-006 16.1906 64.2311 -13.5343 -5.06092e-006 -5.55048e-006 -3 8.02892 -4.95144 0.697687 -52.86 -0.979857 -0.0817706 -110.584 4.23893 22.7577 -5.86734e-006 2.28356e-007 1.082e-006 -22.2483 57.1314 15.4867 6.56873e-006 -5.26351e-007 2.99999 -8.02895 -4.95142 -0.697659 176.209 8.16847 1.72958 180 7.01538e-015 178.884 179.947 12.8124 179.279 1.84783e-006 -3.52178e-006 0.0641719 -17.5423 66.3049 18.2368 8.13649 25.2327 -3.48774 -170.852 11.7471 -4.84349 4.5067e-006 -1.99009e-005 -1.05678 -2.98125 -17.9733 0.00631452 -3.51277e-006 -2.08759e-006 -0.265826 18.7181 68.0036 -19.5387 -8.13649 25.2326 3.48773 
